<?xml version="1.0" standalone="no"?>
<!DOCTYPE svg PUBLIC "-//W3C//DTD SVG 20010904//EN"
 "http://www.w3.org/TR/2001/REC-SVG-20010904/DTD/svg10.dtd">
<svg version="1.0" xmlns="http://www.w3.org/2000/svg"
 width="512.000000pt" height="512.000000pt" viewBox="0 0 512.000000 512.000000"
 preserveAspectRatio="xMidYMid meet">

<g transform="translate(0.000000,512.000000) scale(0.100000,-0.100000)"
fill="#000000" stroke="none">
<path d="M2504 4950 c-63 -13 -126 -49 -264 -150 -215 -159 -263 -172 -506
-145 -183 21 -303 17 -360 -12 -62 -33 -112 -96 -166 -212 -130 -276 -137
-291 -183 -337 -33 -32 -78 -61 -153 -96 -59 -27 -148 -69 -198 -93 -103 -48
-165 -99 -197 -159 -29 -57 -33 -177 -12 -360 28 -245 15 -289 -152 -517 -120
-164 -146 -219 -146 -309 0 -90 26 -145 146 -309 167 -228 180 -272 152 -517
-21 -183 -17 -303 12 -360 32 -61 95 -111 202 -161 286 -134 301 -143 347
-188 32 -33 61 -78 96 -153 27 -59 69 -148 93 -198 48 -103 99 -165 159 -197
57 -29 177 -33 360 -12 245 28 289 15 517 -152 164 -120 219 -146 309 -146 90
0 145 26 309 146 228 167 272 180 517 152 183 -21 303 -17 360 12 62 33 112
96 166 212 130 276 137 291 183 337 33 32 78 61 153 96 59 27 148 69 198 93
103 48 165 99 197 159 29 57 33 177 12 360 -28 245 -15 289 152 517 120 164
146 219 146 310 0 89 -33 157 -153 319 -158 214 -172 262 -145 506 21 183 17
303 -12 360 -32 60 -94 111 -197 159 -50 24 -139 66 -198 93 -141 66 -184 109
-250 250 -27 59 -69 148 -93 198 -48 103 -99 165 -159 197 -57 29 -177 33
-360 12 -244 -27 -292 -13 -506 145 -182 135 -272 171 -376 150z m1053 -1626
c129 -61 185 -223 120 -349 -19 -37 -173 -197 -609 -631 -321 -320 -599 -590
-618 -600 -52 -27 -172 -26 -225 3 -60 32 -769 748 -790 798 -10 22 -18 67
-18 100 -1 151 112 265 262 265 110 -1 128 -13 409 -293 l252 -252 473 472
c259 259 487 479 505 488 77 38 156 38 239 -1z"/>
</g>
</svg>
